<mxfile host="app.diagrams.net" modified="2024-03-28T08:22:38.964Z" agent="Mozilla/5.0 (Windows NT 10.0; Win64; x64) AppleWebKit/537.36 (KHTML, like Gecko) Chrome/121.0.0.0 Safari/537.36" etag="8Gyvm40zHrezLudKafrF" version="24.2.0" type="device">
  <diagram name="Trang-1" id="eqGBQ9AeNkHuo0g46i86">
    <mxGraphModel dx="1006" dy="967" grid="0" gridSize="10" guides="1" tooltips="1" connect="1" arrows="1" fold="1" page="0" pageScale="1" pageWidth="827" pageHeight="1169" math="0" shadow="0">
      <root>
        <mxCell id="0" />
        <mxCell id="1" parent="0" />
        <mxCell id="SFikdad3pkRj1LmxXPR6-1" value="Quản lý cán bộ" style="ellipse;whiteSpace=wrap;html=1;" parent="1" vertex="1">
          <mxGeometry x="390" y="240" width="120" height="80" as="geometry" />
        </mxCell>
        <mxCell id="SFikdad3pkRj1LmxXPR6-2" value="Tạo hồ sơ cán bộ" style="ellipse;whiteSpace=wrap;html=1;" parent="1" vertex="1">
          <mxGeometry x="190" y="110" width="120" height="80" as="geometry" />
        </mxCell>
        <mxCell id="SFikdad3pkRj1LmxXPR6-3" value="Thêm&amp;nbsp;" style="ellipse;whiteSpace=wrap;html=1;" parent="1" vertex="1">
          <mxGeometry x="210" y="-20" width="80" height="50" as="geometry" />
        </mxCell>
        <mxCell id="SFikdad3pkRj1LmxXPR6-4" value="Xóa" style="ellipse;whiteSpace=wrap;html=1;" parent="1" vertex="1">
          <mxGeometry x="10" y="100" width="80" height="50" as="geometry" />
        </mxCell>
        <mxCell id="SFikdad3pkRj1LmxXPR6-5" value="Sửa" style="ellipse;whiteSpace=wrap;html=1;" parent="1" vertex="1">
          <mxGeometry x="100" y="30" width="80" height="50" as="geometry" />
        </mxCell>
        <mxCell id="SFikdad3pkRj1LmxXPR6-6" value="Cập nhật thông tin cán bộ" style="ellipse;whiteSpace=wrap;html=1;" parent="1" vertex="1">
          <mxGeometry x="540" y="100" width="120" height="80" as="geometry" />
        </mxCell>
        <mxCell id="SFikdad3pkRj1LmxXPR6-7" value="Thêm&amp;nbsp;" style="ellipse;whiteSpace=wrap;html=1;" parent="1" vertex="1">
          <mxGeometry x="560" y="-20" width="80" height="50" as="geometry" />
        </mxCell>
        <mxCell id="SFikdad3pkRj1LmxXPR6-8" value="Xóa" style="ellipse;whiteSpace=wrap;html=1;" parent="1" vertex="1">
          <mxGeometry x="747" y="100" width="80" height="50" as="geometry" />
        </mxCell>
        <mxCell id="SFikdad3pkRj1LmxXPR6-9" value="Sửa" style="ellipse;whiteSpace=wrap;html=1;" parent="1" vertex="1">
          <mxGeometry x="680" y="20" width="80" height="50" as="geometry" />
        </mxCell>
        <mxCell id="SFikdad3pkRj1LmxXPR6-10" value="Thời gian làm việc" style="ellipse;whiteSpace=wrap;html=1;" parent="1" vertex="1">
          <mxGeometry x="190" y="360" width="130" height="80" as="geometry" />
        </mxCell>
        <mxCell id="SFikdad3pkRj1LmxXPR6-11" value="Thêm&amp;nbsp;" style="ellipse;whiteSpace=wrap;html=1;" parent="1" vertex="1">
          <mxGeometry x="30" y="425" width="80" height="50" as="geometry" />
        </mxCell>
        <mxCell id="SFikdad3pkRj1LmxXPR6-12" value="Xóa" style="ellipse;whiteSpace=wrap;html=1;" parent="1" vertex="1">
          <mxGeometry x="200" y="535" width="80" height="50" as="geometry" />
        </mxCell>
        <mxCell id="SFikdad3pkRj1LmxXPR6-13" value="Sửa" style="ellipse;whiteSpace=wrap;html=1;" parent="1" vertex="1">
          <mxGeometry x="90" y="500" width="80" height="50" as="geometry" />
        </mxCell>
        <mxCell id="SFikdad3pkRj1LmxXPR6-14" value="Tình trạng hoạt động" style="ellipse;whiteSpace=wrap;html=1;" parent="1" vertex="1">
          <mxGeometry x="540" y="360" width="130" height="80" as="geometry" />
        </mxCell>
        <mxCell id="SFikdad3pkRj1LmxXPR6-15" value="Thêm&amp;nbsp;" style="ellipse;whiteSpace=wrap;html=1;" parent="1" vertex="1">
          <mxGeometry x="747" y="420" width="80" height="50" as="geometry" />
        </mxCell>
        <mxCell id="SFikdad3pkRj1LmxXPR6-16" value="Xóa" style="ellipse;whiteSpace=wrap;html=1;" parent="1" vertex="1">
          <mxGeometry x="580" y="535" width="80" height="50" as="geometry" />
        </mxCell>
        <mxCell id="SFikdad3pkRj1LmxXPR6-17" value="Sửa" style="ellipse;whiteSpace=wrap;html=1;" parent="1" vertex="1">
          <mxGeometry x="667" y="485" width="80" height="50" as="geometry" />
        </mxCell>
        <mxCell id="SFikdad3pkRj1LmxXPR6-18" value="In danh sách cán bộ" style="ellipse;whiteSpace=wrap;html=1;" parent="1" vertex="1">
          <mxGeometry x="380" y="425" width="130" height="80" as="geometry" />
        </mxCell>
        <mxCell id="SFikdad3pkRj1LmxXPR6-25" value="" style="endArrow=open;endFill=1;endSize=12;html=1;rounded=0;exitX=0.5;exitY=1;exitDx=0;exitDy=0;entryX=0.5;entryY=0;entryDx=0;entryDy=0;" parent="1" source="SFikdad3pkRj1LmxXPR6-3" target="SFikdad3pkRj1LmxXPR6-2" edge="1">
          <mxGeometry width="160" relative="1" as="geometry">
            <mxPoint x="360" y="380" as="sourcePoint" />
            <mxPoint x="520" y="380" as="targetPoint" />
          </mxGeometry>
        </mxCell>
        <mxCell id="SFikdad3pkRj1LmxXPR6-26" value="" style="endArrow=open;endFill=1;endSize=12;html=1;rounded=0;exitX=0.659;exitY=0.946;exitDx=0;exitDy=0;exitPerimeter=0;entryX=0;entryY=0;entryDx=0;entryDy=0;" parent="1" source="SFikdad3pkRj1LmxXPR6-5" target="SFikdad3pkRj1LmxXPR6-2" edge="1">
          <mxGeometry width="160" relative="1" as="geometry">
            <mxPoint x="360" y="380" as="sourcePoint" />
            <mxPoint x="520" y="380" as="targetPoint" />
          </mxGeometry>
        </mxCell>
        <mxCell id="SFikdad3pkRj1LmxXPR6-27" value="" style="endArrow=open;endFill=1;endSize=12;html=1;rounded=0;entryX=0;entryY=0.5;entryDx=0;entryDy=0;" parent="1" target="SFikdad3pkRj1LmxXPR6-2" edge="1">
          <mxGeometry width="160" relative="1" as="geometry">
            <mxPoint x="90" y="125" as="sourcePoint" />
            <mxPoint x="520" y="380" as="targetPoint" />
          </mxGeometry>
        </mxCell>
        <mxCell id="SFikdad3pkRj1LmxXPR6-28" value="" style="endArrow=open;endFill=1;endSize=12;html=1;rounded=0;exitX=0.5;exitY=1;exitDx=0;exitDy=0;entryX=0.5;entryY=0;entryDx=0;entryDy=0;" parent="1" source="SFikdad3pkRj1LmxXPR6-7" target="SFikdad3pkRj1LmxXPR6-6" edge="1">
          <mxGeometry width="160" relative="1" as="geometry">
            <mxPoint x="360" y="380" as="sourcePoint" />
            <mxPoint x="520" y="380" as="targetPoint" />
          </mxGeometry>
        </mxCell>
        <mxCell id="SFikdad3pkRj1LmxXPR6-29" value="" style="endArrow=open;endFill=1;endSize=12;html=1;rounded=0;exitX=0.271;exitY=0.969;exitDx=0;exitDy=0;exitPerimeter=0;entryX=1;entryY=0;entryDx=0;entryDy=0;" parent="1" source="SFikdad3pkRj1LmxXPR6-9" target="SFikdad3pkRj1LmxXPR6-6" edge="1">
          <mxGeometry width="160" relative="1" as="geometry">
            <mxPoint x="360" y="380" as="sourcePoint" />
            <mxPoint x="520" y="380" as="targetPoint" />
          </mxGeometry>
        </mxCell>
        <mxCell id="SFikdad3pkRj1LmxXPR6-30" value="" style="endArrow=open;endFill=1;endSize=12;html=1;rounded=0;exitX=0;exitY=0.5;exitDx=0;exitDy=0;entryX=0.979;entryY=0.362;entryDx=0;entryDy=0;entryPerimeter=0;" parent="1" source="SFikdad3pkRj1LmxXPR6-8" target="SFikdad3pkRj1LmxXPR6-6" edge="1">
          <mxGeometry width="160" relative="1" as="geometry">
            <mxPoint x="360" y="380" as="sourcePoint" />
            <mxPoint x="660" y="129" as="targetPoint" />
          </mxGeometry>
        </mxCell>
        <mxCell id="SFikdad3pkRj1LmxXPR6-31" value="" style="endArrow=open;endFill=1;endSize=12;html=1;rounded=0;exitX=0.5;exitY=0;exitDx=0;exitDy=0;entryX=0.451;entryY=1.002;entryDx=0;entryDy=0;entryPerimeter=0;" parent="1" source="SFikdad3pkRj1LmxXPR6-12" target="SFikdad3pkRj1LmxXPR6-10" edge="1">
          <mxGeometry width="160" relative="1" as="geometry">
            <mxPoint x="280" y="430" as="sourcePoint" />
            <mxPoint x="440" y="430" as="targetPoint" />
          </mxGeometry>
        </mxCell>
        <mxCell id="SFikdad3pkRj1LmxXPR6-32" value="" style="endArrow=open;endFill=1;endSize=12;html=1;rounded=0;exitX=0.64;exitY=0.02;exitDx=0;exitDy=0;exitPerimeter=0;entryX=0.223;entryY=0.923;entryDx=0;entryDy=0;entryPerimeter=0;" parent="1" source="SFikdad3pkRj1LmxXPR6-13" target="SFikdad3pkRj1LmxXPR6-10" edge="1">
          <mxGeometry width="160" relative="1" as="geometry">
            <mxPoint x="280" y="430" as="sourcePoint" />
            <mxPoint x="440" y="430" as="targetPoint" />
          </mxGeometry>
        </mxCell>
        <mxCell id="SFikdad3pkRj1LmxXPR6-33" value="" style="endArrow=open;endFill=1;endSize=12;html=1;rounded=0;exitX=1;exitY=0;exitDx=0;exitDy=0;entryX=0.025;entryY=0.656;entryDx=0;entryDy=0;entryPerimeter=0;" parent="1" source="SFikdad3pkRj1LmxXPR6-11" target="SFikdad3pkRj1LmxXPR6-10" edge="1">
          <mxGeometry width="160" relative="1" as="geometry">
            <mxPoint x="250" y="380" as="sourcePoint" />
            <mxPoint x="410" y="380" as="targetPoint" />
          </mxGeometry>
        </mxCell>
        <mxCell id="SFikdad3pkRj1LmxXPR6-34" value="" style="endArrow=open;endFill=1;endSize=12;html=1;rounded=0;exitX=0.5;exitY=0;exitDx=0;exitDy=0;entryX=0.438;entryY=0.988;entryDx=0;entryDy=0;entryPerimeter=0;" parent="1" source="SFikdad3pkRj1LmxXPR6-16" target="SFikdad3pkRj1LmxXPR6-14" edge="1">
          <mxGeometry width="160" relative="1" as="geometry">
            <mxPoint x="620" y="530" as="sourcePoint" />
            <mxPoint x="620" y="390" as="targetPoint" />
          </mxGeometry>
        </mxCell>
        <mxCell id="SFikdad3pkRj1LmxXPR6-35" value="" style="endArrow=open;endFill=1;endSize=12;html=1;rounded=0;exitX=0.362;exitY=0.02;exitDx=0;exitDy=0;exitPerimeter=0;entryX=0.677;entryY=0.969;entryDx=0;entryDy=0;entryPerimeter=0;" parent="1" source="SFikdad3pkRj1LmxXPR6-17" target="SFikdad3pkRj1LmxXPR6-14" edge="1">
          <mxGeometry width="160" relative="1" as="geometry">
            <mxPoint x="460" y="390" as="sourcePoint" />
            <mxPoint x="620" y="390" as="targetPoint" />
          </mxGeometry>
        </mxCell>
        <mxCell id="SFikdad3pkRj1LmxXPR6-36" value="" style="endArrow=open;endFill=1;endSize=12;html=1;rounded=0;exitX=0;exitY=0;exitDx=0;exitDy=0;entryX=0.975;entryY=0.646;entryDx=0;entryDy=0;entryPerimeter=0;" parent="1" source="SFikdad3pkRj1LmxXPR6-15" target="SFikdad3pkRj1LmxXPR6-14" edge="1">
          <mxGeometry width="160" relative="1" as="geometry">
            <mxPoint x="460" y="390" as="sourcePoint" />
            <mxPoint x="620" y="390" as="targetPoint" />
          </mxGeometry>
        </mxCell>
        <mxCell id="SFikdad3pkRj1LmxXPR6-37" value="" style="endArrow=open;endFill=1;endSize=12;html=1;rounded=0;exitX=0.209;exitY=0.08;exitDx=0;exitDy=0;exitPerimeter=0;entryX=1;entryY=1;entryDx=0;entryDy=0;" parent="1" source="SFikdad3pkRj1LmxXPR6-14" target="SFikdad3pkRj1LmxXPR6-1" edge="1">
          <mxGeometry width="160" relative="1" as="geometry">
            <mxPoint x="480" y="330" as="sourcePoint" />
            <mxPoint x="640" y="330" as="targetPoint" />
          </mxGeometry>
        </mxCell>
        <mxCell id="SFikdad3pkRj1LmxXPR6-38" value="" style="endArrow=open;endFill=1;endSize=12;html=1;rounded=0;exitX=1;exitY=0;exitDx=0;exitDy=0;entryX=0;entryY=1;entryDx=0;entryDy=0;" parent="1" source="SFikdad3pkRj1LmxXPR6-10" target="SFikdad3pkRj1LmxXPR6-1" edge="1">
          <mxGeometry width="160" relative="1" as="geometry">
            <mxPoint x="480" y="330" as="sourcePoint" />
            <mxPoint x="640" y="330" as="targetPoint" />
          </mxGeometry>
        </mxCell>
        <mxCell id="SFikdad3pkRj1LmxXPR6-39" value="" style="endArrow=open;endFill=1;endSize=12;html=1;rounded=0;exitX=0;exitY=1;exitDx=0;exitDy=0;entryX=0.758;entryY=0.079;entryDx=0;entryDy=0;entryPerimeter=0;" parent="1" source="SFikdad3pkRj1LmxXPR6-6" target="SFikdad3pkRj1LmxXPR6-1" edge="1">
          <mxGeometry width="160" relative="1" as="geometry">
            <mxPoint x="480" y="330" as="sourcePoint" />
            <mxPoint x="640" y="330" as="targetPoint" />
          </mxGeometry>
        </mxCell>
        <mxCell id="SFikdad3pkRj1LmxXPR6-40" value="" style="endArrow=open;endFill=1;endSize=12;html=1;rounded=0;exitX=1;exitY=1;exitDx=0;exitDy=0;entryX=0;entryY=0;entryDx=0;entryDy=0;" parent="1" source="SFikdad3pkRj1LmxXPR6-2" target="SFikdad3pkRj1LmxXPR6-1" edge="1">
          <mxGeometry width="160" relative="1" as="geometry">
            <mxPoint x="480" y="330" as="sourcePoint" />
            <mxPoint x="640" y="330" as="targetPoint" />
          </mxGeometry>
        </mxCell>
        <mxCell id="SFikdad3pkRj1LmxXPR6-43" value="" style="endArrow=open;endFill=1;endSize=12;html=1;rounded=0;exitX=0.416;exitY=1.012;exitDx=0;exitDy=0;exitPerimeter=0;entryX=0.5;entryY=0;entryDx=0;entryDy=0;" parent="1" source="SFikdad3pkRj1LmxXPR6-1" target="SFikdad3pkRj1LmxXPR6-18" edge="1">
          <mxGeometry width="160" relative="1" as="geometry">
            <mxPoint x="620" y="420" as="sourcePoint" />
            <mxPoint x="780" y="420" as="targetPoint" />
          </mxGeometry>
        </mxCell>
        <mxCell id="SFikdad3pkRj1LmxXPR6-44" value="Cán bộ" style="shape=umlActor;verticalLabelPosition=bottom;verticalAlign=top;html=1;" parent="1" vertex="1">
          <mxGeometry x="420" y="70" width="30" height="60" as="geometry" />
        </mxCell>
        <mxCell id="SFikdad3pkRj1LmxXPR6-45" value="" style="endArrow=classic;html=1;rounded=0;edgeStyle=orthogonalEdgeStyle;" parent="1" source="SFikdad3pkRj1LmxXPR6-44" target="SFikdad3pkRj1LmxXPR6-1" edge="1">
          <mxGeometry width="50" height="50" relative="1" as="geometry">
            <mxPoint x="740" y="450" as="sourcePoint" />
            <mxPoint x="790" y="400" as="targetPoint" />
            <Array as="points">
              <mxPoint x="470" y="100" />
            </Array>
          </mxGeometry>
        </mxCell>
        <mxCell id="SFikdad3pkRj1LmxXPR6-46" value="&amp;lt;&amp;lt;extend&amp;gt;&amp;gt;" style="text;html=1;align=center;verticalAlign=middle;whiteSpace=wrap;rounded=0;rotation=0;" parent="1" vertex="1">
          <mxGeometry x="260" y="50" width="60" height="30" as="geometry" />
        </mxCell>
        <mxCell id="SFikdad3pkRj1LmxXPR6-47" value="&amp;lt;&amp;lt;extend&amp;gt;&amp;gt;" style="text;html=1;align=center;verticalAlign=middle;whiteSpace=wrap;rounded=0;rotation=45;" parent="1" vertex="1">
          <mxGeometry x="140" y="90" width="60" height="30" as="geometry" />
        </mxCell>
        <mxCell id="SFikdad3pkRj1LmxXPR6-48" value="&amp;lt;&amp;lt;extend&amp;gt;&amp;gt;" style="text;html=1;align=center;verticalAlign=middle;whiteSpace=wrap;rounded=0;rotation=15;" parent="1" vertex="1">
          <mxGeometry x="100" y="135" width="60" height="30" as="geometry" />
        </mxCell>
        <mxCell id="SFikdad3pkRj1LmxXPR6-49" value="&amp;lt;&amp;lt;extend&amp;gt;&amp;gt;" style="text;html=1;align=center;verticalAlign=middle;whiteSpace=wrap;rounded=0;rotation=-35;" parent="1" vertex="1">
          <mxGeometry x="130" y="445" width="60" height="30" as="geometry" />
        </mxCell>
        <mxCell id="SFikdad3pkRj1LmxXPR6-50" value="&amp;lt;&amp;lt;extend&amp;gt;&amp;gt;" style="text;html=1;align=center;verticalAlign=middle;whiteSpace=wrap;rounded=0;" parent="1" vertex="1">
          <mxGeometry x="250" y="485" width="60" height="30" as="geometry" />
        </mxCell>
        <mxCell id="SFikdad3pkRj1LmxXPR6-51" value="&amp;lt;&amp;lt;extend&amp;gt;&amp;gt;" style="text;html=1;align=center;verticalAlign=middle;whiteSpace=wrap;rounded=0;rotation=-15;" parent="1" vertex="1">
          <mxGeometry x="100" y="395" width="60" height="30" as="geometry" />
        </mxCell>
        <mxCell id="SFikdad3pkRj1LmxXPR6-52" value="&amp;lt;&amp;lt;extend&amp;gt;&amp;gt;" style="text;html=1;align=center;verticalAlign=middle;whiteSpace=wrap;rounded=0;" parent="1" vertex="1">
          <mxGeometry x="670" y="135" width="60" height="30" as="geometry" />
        </mxCell>
        <mxCell id="SFikdad3pkRj1LmxXPR6-53" value="&amp;lt;&amp;lt;extend&amp;gt;&amp;gt;" style="text;html=1;align=center;verticalAlign=middle;whiteSpace=wrap;rounded=0;rotation=-50;" parent="1" vertex="1">
          <mxGeometry x="660" y="80" width="60" height="30" as="geometry" />
        </mxCell>
        <mxCell id="SFikdad3pkRj1LmxXPR6-54" value="&amp;lt;&amp;lt;extend&amp;gt;&amp;gt;" style="text;html=1;align=center;verticalAlign=middle;whiteSpace=wrap;rounded=0;" parent="1" vertex="1">
          <mxGeometry x="530" y="40" width="60" height="30" as="geometry" />
        </mxCell>
        <mxCell id="SFikdad3pkRj1LmxXPR6-55" value="&amp;lt;&amp;lt;extend&amp;gt;&amp;gt;" style="text;html=1;align=center;verticalAlign=middle;whiteSpace=wrap;rounded=0;rotation=30;" parent="1" vertex="1">
          <mxGeometry x="660" y="440" width="60" height="30" as="geometry" />
        </mxCell>
        <mxCell id="SFikdad3pkRj1LmxXPR6-56" value="&amp;lt;&amp;lt;extend&amp;gt;&amp;gt;" style="text;html=1;align=center;verticalAlign=middle;whiteSpace=wrap;rounded=0;rotation=15;" parent="1" vertex="1">
          <mxGeometry x="690" y="385" width="60" height="30" as="geometry" />
        </mxCell>
        <mxCell id="SFikdad3pkRj1LmxXPR6-57" value="&amp;lt;&amp;lt;extend&amp;gt;&amp;gt;" style="text;html=1;align=center;verticalAlign=middle;whiteSpace=wrap;rounded=0;" parent="1" vertex="1">
          <mxGeometry x="540" y="485" width="60" height="30" as="geometry" />
        </mxCell>
        <mxCell id="SFikdad3pkRj1LmxXPR6-61" value="&amp;lt;&amp;lt;include&amp;gt;&amp;gt;" style="text;html=1;align=center;verticalAlign=middle;whiteSpace=wrap;rounded=0;rotation=-45;" parent="1" vertex="1">
          <mxGeometry x="480" y="170" width="60" height="30" as="geometry" />
        </mxCell>
        <mxCell id="SFikdad3pkRj1LmxXPR6-62" value="&amp;lt;&amp;lt;include&amp;gt;&amp;gt;" style="text;html=1;align=center;verticalAlign=middle;whiteSpace=wrap;rounded=0;rotation=45;" parent="1" vertex="1">
          <mxGeometry x="520" y="310" width="60" height="30" as="geometry" />
        </mxCell>
        <mxCell id="SFikdad3pkRj1LmxXPR6-63" value="&amp;lt;&amp;lt;include&amp;gt;&amp;gt;" style="text;html=1;align=center;verticalAlign=middle;whiteSpace=wrap;rounded=0;" parent="1" vertex="1">
          <mxGeometry x="370" y="360" width="60" height="30" as="geometry" />
        </mxCell>
        <mxCell id="SFikdad3pkRj1LmxXPR6-64" value="&amp;lt;&amp;lt;include&amp;gt;&amp;gt;" style="text;html=1;align=center;verticalAlign=middle;whiteSpace=wrap;rounded=0;rotation=30;" parent="1" vertex="1">
          <mxGeometry x="330" y="180" width="60" height="30" as="geometry" />
        </mxCell>
        <mxCell id="SFikdad3pkRj1LmxXPR6-65" value="&amp;lt;&amp;lt;include&amp;gt;&amp;gt;" style="text;html=1;align=center;verticalAlign=middle;whiteSpace=wrap;rounded=0;rotation=-30;" parent="1" vertex="1">
          <mxGeometry x="300" y="310" width="60" height="30" as="geometry" />
        </mxCell>
      </root>
    </mxGraphModel>
  </diagram>
</mxfile>
